# xmcd CD database file
#
# Track frame offsets:
#	225
#	17808
#	34937
#	50565
#	63062
#	75662
#	86570
#	96989
#	117214
#
# Disc length: 1722 seconds
#
# Revision: 0
# Processed by: cddbd v1.5.2PL0 Copyright (c) Steve Scherf et al.
# Submitted via: CDex 1.51
#
DISCID=6c06b709
DTITLE=Debbie Bennett - CHAMPAGNE COWBOY
DYEAR=1900
DGENRE=Country
TTITLE0=Now I'm Saying Goodbye
TTITLE1=Midnight Turns To Dawn
TTITLE2=Hard Headed Heartbreaking Lovers
TTITLE3=Wanting To Be With You
TTITLE4=Little Church
TTITLE5=Lonely Memories
TTITLE6=Honky Tonk Fever
TTITLE7=Love That Once Belonged
TTITLE8=Champagne Cowboy
EXTD=
EXTT0=
EXTT1=
EXTT2=
EXTT3=
EXTT4=
EXTT5=
EXTT6=
EXTT7=
EXTT8=
PLAYORDER=
